HIERARCHY
ROOT root
{
	OFFSET	0	13.1	24.9
	CHANNELS 6  Xposition Yposition Zposition Xrotation Yrotation Zrotation
	JOINT spine_1
	{
		OFFSET	0	9.99999	0
		CHANNELS 3  Xrotation Yrotation Zrotation
		JOINT spine_2
		{
			OFFSET	0	112	-10
			CHANNELS 3  Xrotation Yrotation Zrotation
			JOINT spine_3
			{
				OFFSET	0	206.5	19.3
				CHANNELS 3  Xrotation Yrotation Zrotation
				JOINT spine_4
				{
					OFFSET	0	110.4	14.6
					CHANNELS 3  Xrotation Yrotation Zrotation
					JOINT neck_1
					{
						OFFSET	0	71.8	-50.3
						CHANNELS 3  Xrotation Yrotation Zrotation
						JOINT neck_2
						{
							OFFSET	0	86.2	-25.8
							CHANNELS 3  Xrotation Yrotation Zrotation
							JOINT head_ee
							{
								OFFSET	0	179.8	-8.7
								CHANNELS 3  Xrotation Yrotation Zrotation
								End Site
								{
									OFFSET	1	0	0
								}
							}
						}
					}
					JOINT left_clavicle
					{
						OFFSET	-43.2	22.4	-70.8
						CHANNELS 3  Xrotation Yrotation Zrotation
						JOINT left_shoulder
						{
							OFFSET	-93.9	-5.79999	48.7
							CHANNELS 3  Xrotation Yrotation Zrotation
							JOINT left_elbow
							{
								OFFSET	-291.4	-30.8	15.2
								CHANNELS 3  Xrotation Yrotation Zrotation
								JOINT left_lowarm_twist
								{
									OFFSET	-110.7	-3.89999	13.6
									CHANNELS 3  Xrotation Yrotation Zrotation
									JOINT left_hand
									{
										OFFSET	-110.7	-3.89999	13.6
										CHANNELS 3  Xrotation Yrotation Zrotation
										JOINT left_ee
										{
											OFFSET	-80.8	-5.10001	12.1
											CHANNELS 3  Xrotation Yrotation Zrotation
											End Site
											{
												OFFSET	1	0	0
											}
										}
									}
								}
							}
						}
					}
					JOINT right_clavicle
					{
						OFFSET	43.2	22.4	-70.8
						CHANNELS 3  Xrotation Yrotation Zrotation
						JOINT right_shoulder
						{
							OFFSET	93.9	-5.79999	48.7
							CHANNELS 3  Xrotation Yrotation Zrotation
							JOINT right_elbow
							{
								OFFSET	291.4	-30.8	15.2
								CHANNELS 3  Xrotation Yrotation Zrotation
								JOINT right_lowarm_twist
								{
									OFFSET	110.7	-3.89999	13.6
									CHANNELS 3  Xrotation Yrotation Zrotation
									JOINT right_hand
									{
										OFFSET	110.7	-3.89999	13.6
										CHANNELS 3  Xrotation Yrotation Zrotation
										JOINT right_ee
										{
											OFFSET	80.8	-5.10001	12.1
											CHANNELS 3  Xrotation Yrotation Zrotation
											End Site
											{
												OFFSET	1	0	0
											}
										}
									}
								}
							}
						}
					}
				}
			}
		}
	}
	JOINT left_hip
	{
		OFFSET	-82.8	-127.5	0.300001
		CHANNELS 3  Xrotation Yrotation Zrotation
		JOINT left_knee
		{
			OFFSET	-28.2	-396.7	2.2
			CHANNELS 3  Xrotation Yrotation Zrotation
			JOINT left_ankle
			{
				OFFSET	-11.7	-411.3	35.4
				CHANNELS 3  Xrotation Yrotation Zrotation
				JOINT left_toes
				{
					OFFSET	0	-60	-88.6
					CHANNELS 3  Xrotation Yrotation Zrotation
					JOINT left_foot_ee
					{
						OFFSET	-22.5	-16.5	-42.2
						CHANNELS 3  Xrotation Yrotation Zrotation
						End Site
						{
							OFFSET	1	0	0
						}
					}
				}
			}
		}
	}
	JOINT right_hip
	{
		OFFSET	82.8	-127.5	0.300001
		CHANNELS 3  Xrotation Yrotation Zrotation
		JOINT right_knee
		{
			OFFSET	28.2	-396.7	2.2
			CHANNELS 3  Xrotation Yrotation Zrotation
			JOINT right_ankle
			{
				OFFSET	11.7	-411.3	35.4
				CHANNELS 3  Xrotation Yrotation Zrotation
				JOINT right_toes
				{
					OFFSET	0	-60	-88.6
					CHANNELS 3  Xrotation Yrotation Zrotation
					JOINT right_foot_ee
					{
						OFFSET	22.5	-16.5	-42.2
						CHANNELS 3  Xrotation Yrotation Zrotation
						End Site
						{
							OFFSET	1	0	0
						}
					}
				}
			}
		}
	}
}
MOTION
Frames: 16
Frame Time: 0.02
1372.05 701.618 -1475.22 -10.6519935493 20.2234125722 -0.415522619011 4.81879 0.00757025 1.70597 4.82041 -0.100984 1.70299 4.81612 -0.317146 1.67626 4.8122 -0.0484724 1.7053 -10.4292 8.04373 -2.56118 -10.5109 16.8761 -0.409478 -0.0 0.0 -0.0 5.37345 15.3019 10.4249 -70.3608 -66.9644 1.5615 0.629805 -17.3274 0.0959661 22.0267 0.243283 -2.78591 -1.2471 -18.5341 -16.3641 -0.0 0.0 -0.0 7.03813 11.012 -13.425 -82.9307 75.5904 -23.0459 0.766309 20.7871 -0.140556 -21.6424 1.24223 -2.45632 -0.394692 -27.7893 -8.73357 0.0 0.0 0.0 11.4192 -12.3282 17.3102 -31.5521 -0.0185066 4.78141 18.6216 -29.0418 -3.17104 -10.1239 0.0 0.0 -0.0 0.0 -0.0 41.7179 21.4656 -8.65867 -9.84443 -0.278468 -1.48329 33.1436 -24.1505 4.4392 -37.2074 0.0 0.0 0.0 0.0 0.0 
1372.05 701.618 -1475.22 -10.6552575512 20.2704528328 -0.406090910302 4.81879 0.00757025 1.70597 4.82041 -0.100984 1.70299 4.81612 -0.317146 1.67626 4.8122 -0.0484724 1.7053 -10.4292 8.04373 -2.56118 -10.5109 16.8761 -0.409478 -0.0 0.0 -0.0 5.37345 15.3019 10.4249 -70.3608 -66.9644 1.5615 0.629805 -17.3274 0.0959661 22.0267 0.243283 -2.78591 -1.2471 -18.5341 -16.3641 -0.0 0.0 -0.0 7.03813 11.012 -13.425 -82.9307 75.5904 -23.0459 0.766309 20.7871 -0.140556 -21.6424 1.24223 -2.45632 -0.394692 -27.7893 -8.73357 0.0 0.0 0.0 11.4192 -12.3282 17.3102 -31.5521 -0.0185066 4.78141 18.6216 -29.0418 -3.17104 -10.1239 0.0 0.0 -0.0 0.0 -0.0 41.7179 21.4656 -8.65867 -9.84443 -0.278468 -1.48329 33.1436 -24.1505 4.4392 -37.2074 0.0 0.0 0.0 0.0 0.0 
1372.05 701.618 -1475.22 -10.6234272706 19.8058858426 -0.498985635631 4.81879 0.00757025 1.70597 4.82041 -0.100984 1.70299 4.81612 -0.317146 1.67626 4.8122 -0.0484724 1.7053 -10.4292 8.04373 -2.56118 -10.5109 16.8761 -0.409478 -0.0 0.0 -0.0 5.37345 15.3019 10.4249 -70.3608 -66.9644 1.5615 0.629805 -17.3274 0.0959661 22.0267 0.243283 -2.78591 -1.2471 -18.5341 -16.3641 -0.0 0.0 -0.0 7.03813 11.012 -13.425 -82.9307 75.5904 -23.0459 0.766309 20.7871 -0.140556 -21.6424 1.24223 -2.45632 -0.394692 -27.7893 -8.73357 0.0 0.0 0.0 11.4192 -12.3282 17.3102 -31.5521 -0.0185066 4.78141 18.6216 -29.0418 -3.17104 -10.1239 0.0 0.0 -0.0 0.0 -0.0 41.7179 21.4656 -8.65867 -9.84443 -0.278468 -1.48329 33.1436 -24.1505 4.4392 -37.2074 0.0 0.0 0.0 0.0 0.0 
1372.05 701.618 -1475.22 -10.5993053953 19.4448126618 -0.570804710717 4.81879 0.00757025 1.70597 4.82041 -0.100984 1.70299 4.81612 -0.317146 1.67626 4.8122 -0.0484724 1.7053 -10.4292 8.04373 -2.56118 -10.5109 16.8761 -0.409478 -0.0 0.0 -0.0 5.37345 15.3019 10.4249 -70.3608 -66.9644 1.5615 0.629805 -17.3274 0.0959661 22.0267 0.243283 -2.78591 -1.2471 -18.5341 -16.3641 -0.0 0.0 -0.0 7.03813 11.012 -13.425 -82.9307 75.5904 -23.0459 0.766309 20.7871 -0.140556 -21.6424 1.24223 -2.45632 -0.394692 -27.7893 -8.73357 0.0 0.0 0.0 11.4192 -12.3282 17.3102 -31.5521 -0.0185066 4.78141 18.6216 -29.0418 -3.17104 -10.1239 0.0 0.0 -0.0 0.0 -0.0 41.7179 21.4656 -8.65867 -9.84443 -0.278468 -1.48329 33.1436 -24.1505 4.4392 -37.2074 0.0 0.0 0.0 0.0 0.0 
1330.8826812 710.654 -1514.7165768 -10.6248434099 23.0317372382 -0.718934254129 4.6964 -0.0574087 1.51228 4.69766 -0.153511 1.50556 4.69267 -0.347265 1.47299 4.68966 -0.110303 1.50934 -8.23356 7.86557 -3.63647 -8.22095 17.2467 -1.85068 -0.0 0.0 -0.0 5.09334 15.3911 9.96723 -71.6763 -65.6209 9.18856 0.667534 -18.2979 0.107508 22.9534 0.229909 -2.90353 -0.640495 -20.7443 -13.1219 -0.0 0.0 -0.0 6.11013 15.3238 -11.1964 -79.3604 70.3426 -21.6101 1.32105 33.1995 -0.393831 -20.6352 1.16434 -2.35346 0.00803472 -28.8098 -11.3222 0.0 0.0 0.0 14.0426 -6.03398 16.3309 -42.0174 -0.600079 6.27837 20.3793 -34.4358 -3.70484 -8.55352 0.0 0.0 -0.0 0.0 -0.0 37.0572 22.5903 -6.78033 -8.86416 -0.262223 -1.33375 34.984 -20.6666 4.55279 -37.3958 0.0 0.0 0.0 0.0 0.0 
1331.2260809 710.654 -1515.07141585 -10.586497637 22.5442862999 -0.817935470816 4.6964 -0.0574087 1.51228 4.69766 -0.153511 1.50556 4.69267 -0.347265 1.47299 4.68966 -0.110303 1.50934 -8.23356 7.86557 -3.63647 -8.22095 17.2467 -1.85068 -0.0 0.0 -0.0 5.09334 15.3911 9.96723 -71.6763 -65.6209 9.18856 0.667534 -18.2979 0.107508 22.9534 0.229909 -2.90353 -0.640495 -20.7443 -13.1219 -0.0 0.0 -0.0 6.11013 15.3238 -11.1964 -79.3604 70.3426 -21.6101 1.32105 33.1995 -0.393831 -20.6352 1.16434 -2.35346 0.00803472 -28.8098 -11.3222 0.0 0.0 0.0 14.0426 -6.03398 16.3309 -42.0174 -0.600079 6.27837 20.3793 -34.4358 -3.70484 -8.55352 0.0 0.0 -0.0 0.0 -0.0 37.0572 22.5903 -6.78033 -8.86416 -0.262223 -1.33375 34.984 -20.6666 4.55279 -37.3958 0.0 0.0 0.0 0.0 0.0 
1324.85396217 713.047 -1531.54629796 -10.2261232251 23.8773579612 -1.02016404504 4.56816 0.0642591 1.46129 4.56934 -0.0288465 1.46241 4.56774 -0.221172 1.44588 4.56482 0.00992853 1.46266 -7.82937 7.89027 -3.38098 -7.80839 17.1077 -1.65426 -0.0 0.0 -0.0 5.00545 15.548 9.82239 -69.849 -65.8519 13.85 0.699271 -19.106 0.117684 23.2908 0.224568 -2.9463 -0.662435 -20.3864 -13.1235 -0.0 0.0 -0.0 6.74614 17.3133 -12.4299 -77.5442 68.6133 -22.0724 1.35704 33.9087 -0.413723 -19.5762 1.08442 -2.24388 0.291064 -28.2557 -12.7032 0.0 0.0 0.0 14.7406 -4.56133 15.236 -42.1857 -0.611646 6.30152 19.5583 -33.1461 -3.50454 -8.33258 0.0 0.0 -0.0 0.0 -0.0 36.6758 23.1459 -6.81265 -10.5853 -0.289048 -1.59649 35.1725 -18.9844 4.5384 -37.5796 0.0 0.0 0.0 0.0 0.0 
1326.24595725 713.047 -1532.68396694 -10.1200702716 22.497664884 -1.28949071176 4.56816 0.0642591 1.46129 4.56934 -0.0288465 1.46241 4.56774 -0.221172 1.44588 4.56482 0.00992853 1.46266 -7.82937 7.89027 -3.38098 -7.80839 17.1077 -1.65426 -0.0 0.0 -0.0 5.00545 15.548 9.82239 -69.849 -65.8519 13.85 0.699271 -19.106 0.117684 23.2908 0.224568 -2.9463 -0.662435 -20.3864 -13.1235 -0.0 0.0 -0.0 6.74614 17.3133 -12.4299 -77.5442 68.6133 -22.0724 1.35704 33.9087 -0.413723 -19.5762 1.08442 -2.24388 0.291064 -28.2557 -12.7032 0.0 0.0 0.0 14.7406 -4.56133 15.236 -42.1857 -0.611646 6.30152 19.5583 -33.1461 -3.50454 -8.33258 0.0 0.0 -0.0 0.0 -0.0 36.6758 23.1459 -6.81265 -10.5853 -0.289048 -1.59649 35.1725 -18.9844 4.5384 -37.5796 0.0 0.0 0.0 0.0 0.0 
1328.47861249 713.047 -1534.39475829 -9.96999732201 20.338073371 -1.70038678079 4.56816 0.0642591 1.46129 4.56934 -0.0288465 1.46241 4.56774 -0.221172 1.44588 4.56482 0.00992853 1.46266 -7.82937 7.89027 -3.38098 -7.80839 17.1077 -1.65426 -0.0 0.0 -0.0 5.00545 15.548 9.82239 -69.849 -65.8519 13.85 0.699271 -19.106 0.117684 23.2908 0.224568 -2.9463 -0.662435 -20.3864 -13.1235 -0.0 0.0 -0.0 6.74614 17.3133 -12.4299 -77.5442 68.6133 -22.0724 1.35704 33.9087 -0.413723 -19.5762 1.08442 -2.24388 0.291064 -28.2557 -12.7032 0.0 0.0 0.0 14.7406 -4.56133 15.236 -42.1857 -0.611646 6.30152 19.5583 -33.1461 -3.50454 -8.33258 0.0 0.0 -0.0 0.0 -0.0 36.6758 23.1459 -6.81265 -10.5853 -0.289048 -1.59649 35.1725 -18.9844 4.5384 -37.5796 0.0 0.0 0.0 0.0 0.0 
1302.58754509 730.57 -1563.5790178 -9.51235687364 25.1440695265 -0.675211675663 4.41944 0.270829 1.25545 4.42029 0.190399 1.27014 4.42392 0.0183238 1.2842 4.42168 0.220893 1.26519 -6.59826 8.01083 -2.3738 -6.55774 16.5775 -0.806309 -0.0 0.0 -0.0 4.85898 15.5293 9.58552 -63.4478 -65.393 27.0538 0.764317 -20.7376 0.139851 24.4721 0.203884 -3.09577 -0.789147 -19.0347 -13.4281 -0.0 0.0 -0.0 9.25984 23.2831 -17.4805 -70.9964 63.8002 -24.5282 1.5117 36.8254 -0.503275 -15.7469 0.812694 -1.83585 1.26947 -26.4175 -17.7465 0.0 0.0 0.0 15.4759 0.159208 11.4422 -41.3792 -0.556833 6.19026 16.9382 -27.8935 -2.86935 -7.46237 0.0 0.0 -0.0 0.0 -0.0 35.3794 25.0547 -6.13323 -17.2523 -0.318229 -2.61841 31.5873 -13.7643 4.09301 -39.1444 0.0 0.0 0.0 0.0 0.0 
1255.87151164 733.02 -1619.09320031 -9.48596037336 33.8579161026 -0.590447185982 4.19149 0.543148 2.33916 4.19445 0.393243 2.36896 4.20884 0.0630633 2.40053 4.20107 0.441285 2.36049 -8.13803 8.1969 -1.4161 -8.15878 16.3071 0.411966 -0.0 0.0 -0.0 3.01589 18.5629 6.7267 -64.3754 -65.0678 28.6835 0.73837 -20.0908 0.1308 24.9752 0.194139 -3.1593 -0.734441 -17.9228 -12.5951 -0.0 0.0 -0.0 9.73523 26.4979 -18.2187 -71.3141 63.7887 -24.725 1.3439 33.6511 -0.406417 -15.7204 0.81091 -1.83296 1.327 -27.968 -18.5108 0.0 0.0 0.0 20.6914 1.83873 8.9289 -48.5256 -1.0962 7.14763 17.833 -29.7091 -3.07647 -6.33101 0.0 0.0 -0.0 0.0 -0.0 30.7948 24.0897 -4.76947 -18.5094 -0.3104 -2.81113 33.3679 -13.8793 4.27984 -38.0233 0.0 0.0 0.0 0.0 0.0 
1263.01449288 733.02 -1624.57928867 -9.19751143256 31.1040707492 -1.1274183514 4.19149 0.543148 2.33916 4.19445 0.393243 2.36896 4.20884 0.0630633 2.40053 4.20107 0.441285 2.36049 -8.13803 8.1969 -1.4161 -8.15878 16.3071 0.411966 -0.0 0.0 -0.0 3.01589 18.5629 6.7267 -64.3754 -65.0678 28.6835 0.73837 -20.0908 0.1308 24.9752 0.194139 -3.1593 -0.734441 -17.9228 -12.5951 -0.0 0.0 -0.0 9.73523 26.4979 -18.2187 -71.3141 63.7887 -24.725 1.3439 33.6511 -0.406417 -15.7204 0.81091 -1.83296 1.327 -27.968 -18.5108 0.0 0.0 0.0 20.6914 1.83873 8.9289 -48.5256 -1.0962 7.14763 17.833 -29.7091 -3.07647 -6.33101 0.0 0.0 -0.0 0.0 -0.0 30.7948 24.0897 -4.76947 -18.5094 -0.3104 -2.81113 33.3679 -13.8793 4.27984 -38.0233 0.0 0.0 0.0 0.0 0.0 
1257.58354 741.241 -1666.70019455 -7.64206582703 31.7437283482 -1.6784136895 4.07034 0.620253 2.70406 4.0743 0.446996 2.73801 4.09329 0.0599037 2.77359 4.0829 0.497023 2.72938 -6.98901 8.66386 -1.61562 -6.97237 17.2612 0.145178 -0.0 0.0 -0.0 1.17382 19.3345 4.00194 -64.3967 -64.4555 30.3386 0.6879 -18.8174 0.11399 26.3957 0.16362 -3.33818 -0.611807 -16.5166 -11.1727 -0.0 0.0 -0.0 10.3224 27.7841 -19.385 -69.4819 65.5101 -23.7886 1.33583 33.4922 -0.401958 -14.6277 0.738508 -1.7133 1.54074 -28.373 -19.8628 0.0 0.0 0.0 31.4822 7.19487 1.00581 -57.0654 -1.89157 8.19426 11.0248 -29.8369 -1.97134 -6.35582 0.0 0.0 -0.0 0.0 -0.0 26.5641 21.7133 -4.46576 -19.1521 -0.304764 -2.90957 36.6961 -13.9254 4.61108 -36.1344 0.0 0.0 0.0 0.0 0.0 
1267.58265011 741.241 -1672.33369353 -7.41645140676 28.821164634 -2.12568060289 4.07034 0.620253 2.70406 4.0743 0.446996 2.73801 4.09329 0.0599037 2.77359 4.0829 0.497023 2.72938 -6.98901 8.66386 -1.61562 -6.97237 17.2612 0.145178 -0.0 0.0 -0.0 1.17382 19.3345 4.00194 -64.3967 -64.4555 30.3386 0.6879 -18.8174 0.11399 26.3957 0.16362 -3.33818 -0.611807 -16.5166 -11.1727 -0.0 0.0 -0.0 10.3224 27.7841 -19.385 -69.4819 65.5101 -23.7886 1.33583 33.4922 -0.401958 -14.6277 0.738508 -1.7133 1.54074 -28.373 -19.8628 0.0 0.0 0.0 31.4822 7.19487 1.00581 -57.0654 -1.89157 8.19426 11.0248 -29.8369 -1.97134 -6.35582 0.0 0.0 -0.0 0.0 -0.0 26.5641 21.7133 -4.46576 -19.1521 -0.304764 -2.90957 36.6961 -13.9254 4.61108 -36.1344 0.0 0.0 0.0 0.0 0.0 
1278.03970997 741.916 -1693.10337131 -7.0496274693 26.5409158449 -2.20524445385 4.04139 0.525817 2.74664 4.04552 0.350044 2.77451 4.06002 -0.0429388 2.79615 4.04934 0.399028 2.76789 -7.44905 8.62314 -2.16434 -7.44003 17.5999 -0.34137 -0.0 0.0 -0.0 0.534743 19.3794 3.05624 -64.0197 -64.1585 30.7685 0.667527 -18.2977 0.107506 27.1561 0.145461 -3.43362 -0.565394 -15.9414 -10.6152 -0.0 0.0 -0.0 10.1723 27.0558 -19.1331 -68.4951 66.4385 -23.4934 1.33671 33.5095 -0.402441 -15.1013 0.76961 -1.76533 1.56045 -28.5815 -20.0305 0.0 0.0 0.0 34.613 8.16879 -1.37022 -59.5783 -2.15462 8.47882 8.89002 -29.2363 -1.59173 -6.40252 0.0 0.0 -0.0 0.0 -0.0 25.778 20.8825 -4.90444 -19.2723 -0.303587 -2.92799 37.3037 -14.7824 4.68014 -35.5436 0.0 0.0 0.0 0.0 0.0 
1285.80016663 741.916 -1696.29027021 -6.93183076871 24.5302669499 -2.4784667266 4.04139 0.525817 2.74664 4.04552 0.350044 2.77451 4.06002 -0.0429388 2.79615 4.04934 0.399028 2.76789 -7.44905 8.62314 -2.16434 -7.44003 17.5999 -0.34137 -0.0 0.0 -0.0 0.534743 19.3794 3.05624 -64.0197 -64.1585 30.7685 0.667527 -18.2977 0.107506 27.1561 0.145461 -3.43362 -0.565394 -15.9414 -10.6152 -0.0 0.0 -0.0 10.1723 27.0558 -19.1331 -68.4951 66.4385 -23.4934 1.33671 33.5095 -0.402441 -15.1013 0.76961 -1.76533 1.56045 -28.5815 -20.0305 0.0 0.0 0.0 34.613 8.16879 -1.37022 -59.5783 -2.15462 8.47882 8.89002 -29.2363 -1.59173 -6.40252 0.0 0.0 -0.0 0.0 -0.0 25.778 20.8825 -4.90444 -19.2723 -0.303587 -2.92799 37.3037 -14.7824 4.68014 -35.5436 0.0 0.0 0.0 0.0 0.0 
